<?xml version="1.0"?>
<svg xmlns="http://www.w3.org/2000/svg" xmlns:xlink="http://www.w3.org/1999/xlink" xmlns:svgjs="http://svgjs.com/svgjs" version="1.1" width="512" height="512" x="0" y="0" viewBox="0 0 24 24" style="enable-background:new 0 0 512 512" xml:space="preserve" class=""><g><g xmlns="http://www.w3.org/2000/svg"><path d="m10 24c-1.93 0-3.5-1.57-3.5-3.5 0-.276.224-.5.5-.5s.5.224.5.5c0 1.378 1.122 2.5 2.5 2.5s2.5-1.122 2.5-2.5c0-.276.224-.5.5-.5s.5.224.5.5c0 1.93-1.57 3.5-3.5 3.5z" fill="#f7f7f7" data-original="#000000" style="" class=""/></g><g xmlns="http://www.w3.org/2000/svg"><path d="m18.5 21h-17c-.827 0-1.5-.673-1.5-1.5 0-.439.191-.854.525-1.14.02-.017.042-.033.064-.046 1.533-1.331 2.411-3.249 2.411-5.274v-3.04c0-3.292 2.337-6.173 5.558-6.849.266-.055.535.116.592.387.057.27-.116.535-.387.592-2.76.579-4.763 3.048-4.763 5.87v3.04c0 2.342-1.026 4.559-2.816 6.081-.015.013-.03.024-.046.035-.089.093-.138.216-.138.344 0 .276.224.5.5.5h17c.276 0 .5-.224.5-.5 0-.129-.05-.252-.138-.345-.015-.01-.03-.021-.044-.033-.932-.785-1.661-1.768-2.166-2.922-.111-.253.004-.548.257-.659.255-.109.548.005.659.257.435.991 1.055 1.837 1.845 2.516.022.013.043.028.062.045.334.287.525.702.525 1.141 0 .827-.673 1.5-1.5 1.5z" fill="#f7f7f7" data-original="#000000" style="" class=""/></g><g xmlns="http://www.w3.org/2000/svg"><path d="m17.5 13c-3.584 0-6.5-2.916-6.5-6.5s2.916-6.5 6.5-6.5 6.5 2.916 6.5 6.5-2.916 6.5-6.5 6.5zm0-12c-3.033 0-5.5 2.467-5.5 5.5s2.467 5.5 5.5 5.5 5.5-2.467 5.5-5.5-2.467-5.5-5.5-5.5z" fill="#f7f7f7" data-original="#000000" style="" class=""/></g><g xmlns="http://www.w3.org/2000/svg"><path d="m19 9.5h-3c-.276 0-.5-.224-.5-.5v-.75c0-1.241 1.009-2.25 2.25-2.25.414 0 .75-.336.75-.75s-.336-.75-.75-.75h-1.75c-.276 0-.5-.224-.5-.5s.224-.5.5-.5h1.75c.965 0 1.75.785 1.75 1.75s-.785 1.75-1.75 1.75c-.689 0-1.25.561-1.25 1.25v.25h2.5c.276 0 .5.224.5.5s-.224.5-.5.5z" fill="#f7f7f7" data-original="#000000" style="" class=""/></g></g></svg>
